# xmcd
#
# Track frame offsets: 
#        150
#        18394
#        40058
#        53816
#        69719
#        89920
#        105740
#        125300
#        141148
#        157866
#        174055
#        194347
#        213092
#        227644
#        246605
#        264459
#
# Disc length: 3739 seconds
#
# Revision: 0
# Processed by: cddbd v1.5.1PL2 Copyright (c) Steve Scherf et al.
# Submitted via: ExactAudioCopy v0.95a5
#
DISCID=db0e9910
DTITLE=谭咏麟 - 谭咏麟浪漫经典系列VOL.1
DYEAR=1900
DGENRE=Pop
TTITLE0=水中花
TTITLE1=朋友
TTITLE2=小珊瑚
TTITLE3=迟来的春天
TTITLE4=雾之恋
TTITLE5=柔柔河畔
TTITLE6=雨夜的浪漫
TTITLE7=曾经
TTITLE8=天边一只雁
TTITLE9=小风波
TTITLE10=爱的逃兵
TTITLE11=情(是永远着迷)
TTITLE12=雨丝情愁
TTITLE13=Don't say goodbye
TTITLE14=谁可改变
TTITLE15=相识非偶然
EXTD=
EXTT0=
EXTT1=
EXTT2=
EXTT3=
EXTT4=
EXTT5=
EXTT6=
EXTT7=
EXTT8=
EXTT9=
EXTT10=
EXTT11=
EXTT12=
EXTT13=
EXTT14=
EXTT15=
PLAYORDER=
